<svg width="7" height="14" viewBox="0 0 7 14" fill="none" xmlns="http://www.w3.org/2000/svg">
<path d="M6.74423 0H5.06154C3.17692 0 1.95192 1.34227 1.95192 3.42062V4.99381H0.269231C0.121154 4.99381 0 5.12371 0 5.28247V7.56289C0 7.72165 0.121154 7.85155 0.269231 7.85155H1.95192V13.6103C1.95192 13.7691 2.07308 13.899 2.22115 13.899H4.42885C4.57692 13.899 4.69808 13.7691 4.69808 13.6103V7.83711H6.67692C6.825 7.83711 6.94615 7.70722 6.94615 7.54845V5.26804C6.94615 5.19588 6.91923 5.12371 6.86539 5.06598C6.81154 5.00825 6.74423 4.97938 6.67692 4.97938H4.68462V3.65155C4.68462 3.01649 4.83269 2.68454 5.6 2.68454H6.73077C6.87885 2.68454 7 2.55464 7 2.39588V0.28866C7 0.129897 6.89231 0 6.74423 0Z" fill="white"/>
</svg>
