<svg width="375" height="604" viewBox="0 0 375 604" fill="none" xmlns="http://www.w3.org/2000/svg">
<rect x="-772" width="1920" height="604" fill="#2F5BEA"/>
<mask id="mask0" style="mask-type:alpha" maskUnits="userSpaceOnUse" x="-772" y="0" width="1920" height="604">
<rect x="-772" width="1920" height="604" fill="white"/>
</mask>
<g mask="url(#mask0)">
</g>
<path d="M45.0845 359.623H124.022C135.044 359.623 144.167 368.22 144.858 379.257L149.107 447.676H20L24.2522 379.264C24.936 368.224 34.06 359.622 45.0845 359.623Z" fill="#C13038"/>
<path d="M78.2296 313.087C81.0698 308.87 89.0283 308.677 94.5102 308.87C99.992 309.063 99.2501 304.266 99.2501 304.266C111.379 307.717 105.923 318.73 105.923 318.73H88.515L82.5198 323.974V328.222C81.5527 326.705 79.8899 325.789 78.1059 325.791C77.7279 325.792 77.3511 325.834 76.9818 325.916H76.9556C76.1131 326.108 75.3305 326.508 74.6774 327.08C68.4687 313.413 78.2296 313.087 78.2296 313.087Z" fill="#223F78"/>
<path d="M76.7885 326.011H76.8148C77.1852 325.929 77.5632 325.887 77.9423 325.886C79.729 325.883 81.3948 326.794 82.366 328.303V324.066L88.3794 318.834H105.856V341.465C105.856 343.159 105.088 344.76 103.771 345.814C102.453 346.867 100.73 347.258 99.0908 346.875L92.5587 345.154V359.639L84.418 367.716L76.6758 359.647L76.7547 336.365C74.3297 335.835 72.6028 333.67 72.6109 331.172C72.6191 328.674 74.3601 326.522 76.7885 326.007V326.011Z" fill="#F6D0BA"/>
<path d="M98.2689 341.495C99.904 341.497 101.473 340.852 102.628 339.703L101.822 338.905C99.859 340.85 96.6826 340.85 94.7199 338.905L93.9135 339.703C95.0678 340.852 96.6351 341.497 98.2689 341.495Z" fill="#2C2D3C"/>
<path d="M92.6604 359.623L101.014 366.204L84.5533 367.716L92.6604 359.623Z" fill="white"/>
<path d="M76.8499 359.623L68.0921 366.202L84.5532 367.716L76.8499 359.623Z" fill="white"/>
<path fill-rule="evenodd" clip-rule="evenodd" d="M69.7061 401.567L60.0249 407.211L50.3401 401.567V387.14H69.7061V401.567ZM60.0249 405.909L68.5845 400.913V388.265H51.4616V400.913L60.0249 405.909Z" fill="#2C2D3C"/>
<path d="M137.336 395.058L136.232 394.843L126.031 447.482L127.135 447.697L137.336 395.058Z" fill="#2C2D3C"/>
<rect width="45.9931" height="0.965179" transform="matrix(0.190436 -0.9817 0.981488 0.191526 253.28 447.542)" fill="#2C2D3C"/>
<path d="M295.675 352.76H272.62C264.767 352.76 258.156 358.652 257.233 366.473L254.167 392.277H273.982L287.167 426.741H349.312L343.306 366.745C342.515 358.793 335.841 352.739 327.874 352.747H309.444L296.956 362.349L295.675 352.76Z" fill="#223F78"/>
<path d="M309.702 328.629C309.421 326.526 307.781 324.866 305.687 324.563C305.259 324.503 304.824 324.503 304.396 324.563C303.503 324.682 302.662 325.056 301.975 325.641C298.399 323.722 296.834 319.691 296.834 319.691C291.259 328.61 281.118 329.953 281.118 329.953L282.603 341.122C282.795 342.557 283.628 343.827 284.868 344.57C286.107 345.313 287.616 345.449 288.968 344.939L294.352 342.734L295.688 352.77L296.979 362.371L309.467 352.77L306.914 333.621C308.851 332.77 309.99 330.732 309.702 328.629Z" fill="#F6D0BA"/>
<path d="M351.452 315.596C348.379 313.347 344.351 312.657 340.585 313.172C338.196 313.495 335.888 314.276 333.484 314.612C331.079 314.949 328.51 314.8 326.518 313.437C325.095 312.466 324.124 310.974 323.052 309.617C321.157 307.215 318.698 305.062 315.706 304.438C312.478 303.771 309.018 305.085 306.646 307.377C305.677 308.326 304.122 310.171 303.386 311.993C300.666 310.914 297.716 310.55 294.816 310.935C286.905 312 276.196 316.891 281.118 329.954C281.118 329.954 291.253 328.61 296.814 319.682C296.814 319.682 298.38 323.712 301.956 325.632C302.643 325.047 303.483 324.673 304.377 324.554C304.805 324.494 305.239 324.494 305.668 324.554C307.776 324.844 309.431 326.511 309.712 328.626C309.993 330.742 308.83 332.785 306.872 333.618L307.737 340.093C307.737 340.093 314.228 334.266 312.901 324.369C312.365 320.336 310.58 317.186 308.114 314.936C308.54 314.854 308.976 314.844 309.405 314.907C311.629 315.315 313.601 316.584 315.315 318.073C320.96 323.003 325.076 329.284 331.812 332.964C339.155 336.988 353.114 336.477 355.561 326.587C356.604 322.456 354.851 318.079 351.452 315.596Z" fill="#FCB62E"/>
<path d="M287.157 426.741L286.002 447.631H355.251L349.312 426.741H287.157Z" fill="#5EBAAA"/>
<path fill-rule="evenodd" clip-rule="evenodd" d="M284.346 336.962C284.649 339.184 286.538 340.842 288.774 340.847C288.973 340.849 289.171 340.837 289.368 340.811C290.543 340.655 291.608 340.037 292.328 339.092C293.047 338.148 293.363 336.955 293.206 335.777L293.141 335.295L284.284 336.483L284.346 336.962ZM289.242 339.853C287.506 340.086 285.866 338.998 285.401 337.305L292.279 336.383C292.274 338.139 290.977 339.621 289.242 339.853Z" fill="#2C2D3C"/>
<path d="M248.499 439.93L234.33 442.406V447.631H263.469L264.818 442.406L273.972 392.277H254.157L248.499 439.93Z" fill="#F6D0BA"/>
<path d="M339.203 392.277H320.628L319.411 440.257L307.117 442.406V447.631H336.26L335.953 439.93L339.203 392.277Z" fill="#F6D0BA"/>
<path d="M33 165V203L0 183.978L33 165Z" fill="#C13038"/>
<path d="M329 289V262L352 275.508L329 289Z" fill="#93B9FF"/>
<path d="M48 101V71L75 86.0173L48 101Z" fill="#5EBAAA"/>
<path d="M346.979 119L329 86H365L346.979 119Z" fill="#FCB62E"/>
</svg>
