<svg width="15" height="391" viewBox="0 0 15 391" fill="none" xmlns="http://www.w3.org/2000/svg">
<path fill-rule="evenodd" clip-rule="evenodd" d="M2 0C3.10457 0 4 0.89543 4 2V10.0625C4 11.1671 3.10457 12.0625 2 12.0625C0.89543 12.0625 0 11.1671 0 10.0625V2C0 0.89543 0.89543 0 2 0ZM2 24.1875C3.10457 24.1875 4 25.0829 4 26.1875V42.3125C4 43.4171 3.10457 44.3125 2 44.3125C0.89543 44.3125 0 43.4171 0 42.3125V26.1875C0 25.0829 0.89543 24.1875 2 24.1875ZM2 56.4375C3.10457 56.4375 4 57.3329 4 58.4375V74.5625C4 75.6671 3.10457 76.5625 2 76.5625C0.89543 76.5625 0 75.6671 0 74.5625V58.4375C0 57.3329 0.89543 56.4375 2 56.4375ZM2 88.6875C3.10457 88.6875 4 89.5829 4 90.6875V106.813C4 107.917 3.10457 108.813 2 108.813C0.89543 108.813 0 107.917 0 106.813V90.6875C0 89.5829 0.89543 88.6875 2 88.6875ZM2 120.938C3.10457 120.938 4 121.833 4 122.938V139.062C4 140.167 3.10457 141.062 2 141.062C0.89543 141.062 0 140.167 0 139.062V122.938C0 121.833 0.89543 120.938 2 120.938ZM2 153.188C3.10457 153.188 4 154.083 4 155.188V171.312C4 172.417 3.10457 173.312 2 173.312C0.89543 173.312 0 172.417 0 171.312V155.188C0 154.083 0.89543 153.188 2 153.188ZM2 185.438C3.10457 185.438 4 186.333 4 187.438V203.562C4 204.667 3.10457 205.562 2 205.562C0.89543 205.562 0 204.667 0 203.562V187.438C0 186.333 0.89543 185.438 2 185.438ZM2 217.688C3.10457 217.688 4 218.583 4 219.688V235.813C4 236.917 3.10457 237.813 2 237.813C0.89543 237.813 0 236.917 0 235.813V219.688C0 218.583 0.89543 217.688 2 217.688ZM2 249.937C3.10457 249.937 4 250.833 4 251.937V268.062C4 269.167 3.10457 270.062 2 270.062C0.89543 270.062 0 269.167 0 268.062V251.937C0 250.833 0.89543 249.937 2 249.937ZM2 282.188C3.10457 282.188 4 283.083 4 284.188V300.312C4 301.417 3.10457 302.312 2 302.312C0.89543 302.312 0 301.417 0 300.312V284.188C0 283.083 0.89543 282.188 2 282.188ZM2 314.438C3.10457 314.438 4 315.333 4 316.438V332.562C4 333.667 3.10457 334.562 2 334.562C0.89543 334.562 0 333.667 0 332.562V316.438C0 315.333 0.89543 314.438 2 314.438ZM2 346.688C3.10457 346.688 4 347.583 4 348.688V364.812C4 365.917 3.10457 366.812 2 366.812C0.89543 366.812 0 365.917 0 364.812V348.688C0 347.583 0.89543 346.688 2 346.688ZM2 378.938C3.10457 378.938 4 379.833 4 380.938V389C4 390.105 3.10457 391 2 391C0.89543 391 0 390.105 0 389V380.938C0 379.833 0.89543 378.938 2 378.938Z" fill="#5EBAAA"/>
</svg>
