<svg width="15" height="325" viewBox="0 0 15 325" fill="none" xmlns="http://www.w3.org/2000/svg">
<path fill-rule="evenodd" clip-rule="evenodd" d="M2 0C3.10457 0 4 0.89543 4 2V9.80952C4 10.9141 3.10457 11.8095 2 11.8095C0.89543 11.8095 0 10.9141 0 9.80952V2C0 0.89543 0.89543 0 2 0ZM2 23.4286C3.10457 23.4286 4 24.324 4 25.4286V41.0476C4 42.1522 3.10457 43.0476 2 43.0476C0.89543 43.0476 0 42.1522 0 41.0476V25.4286C0 24.324 0.89543 23.4286 2 23.4286ZM2 54.6667C3.10457 54.6667 4 55.5621 4 56.6667V72.2857C4 73.3903 3.10457 74.2857 2 74.2857C0.89543 74.2857 0 73.3903 0 72.2857V56.6667C0 55.5621 0.89543 54.6667 2 54.6667ZM2 85.9048C3.10457 85.9048 4 86.8002 4 87.9048V103.524C4 104.628 3.10457 105.524 2 105.524C0.89543 105.524 0 104.628 0 103.524V87.9048C0 86.8002 0.89543 85.9048 2 85.9048ZM2 117.143C3.10457 117.143 4 118.038 4 119.143V134.762C4 135.866 3.10457 136.762 2 136.762C0.89543 136.762 0 135.866 0 134.762V119.143C0 118.038 0.89543 117.143 2 117.143ZM2 148.381C3.10457 148.381 4 149.276 4 150.381V166C4 167.105 3.10457 168 2 168C0.89543 168 0 167.105 0 166V150.381C0 149.276 0.89543 148.381 2 148.381ZM2 179.619C3.10457 179.619 4 180.514 4 181.619V197.238C4 198.343 3.10457 199.238 2 199.238C0.89543 199.238 0 198.343 0 197.238V181.619C0 180.514 0.89543 179.619 2 179.619ZM2 210.857C3.10457 210.857 4 211.753 4 212.857V228.476C4 229.581 3.10457 230.476 2 230.476C0.89543 230.476 0 229.581 0 228.476V212.857C0 211.753 0.89543 210.857 2 210.857ZM2 242.095C3.10457 242.095 4 242.991 4 244.095V259.714C4 260.819 3.10457 261.714 2 261.714C0.89543 261.714 0 260.819 0 259.714V244.095C0 242.991 0.89543 242.095 2 242.095ZM2 273.333C3.10457 273.333 4 274.229 4 275.333V290.952C4 292.057 3.10457 292.952 2 292.952C0.89543 292.952 0 292.057 0 290.952V275.333C0 274.229 0.89543 273.333 2 273.333ZM2 304.571C3.10457 304.571 4 305.467 4 306.571V322.19C4 323.295 3.10457 324.19 2 324.19C0.89543 324.19 0 323.295 0 322.19V306.571C0 305.467 0.89543 304.571 2 304.571Z" fill="#F0F3FF"/>
</svg>
